<?xml version="1.0" encoding="UTF-8" standalone="no"?>
<!-- Created with Inkscape (http://www.inkscape.org/) -->

<svg
   width="176.7419mm"
   height="45.013523mm"
   viewBox="0 0 176.7419 45.013524"
   version="1.1"
   id="svg1"
   inkscape:version="1.4 (e7c3feb1, 2024-10-09)"
   sodipodi:docname="wold_eyes.svg"
   xmlns:inkscape="http://www.inkscape.org/namespaces/inkscape"
   xmlns:sodipodi="http://sodipodi.sourceforge.net/DTD/sodipodi-0.dtd"
   xmlns="http://www.w3.org/2000/svg"
   xmlns:svg="http://www.w3.org/2000/svg">
  <sodipodi:namedview
     id="namedview1"
     pagecolor="#000000"
     bordercolor="#000000"
     borderopacity="0.25"
     inkscape:showpageshadow="2"
     inkscape:pageopacity="0.0"
     inkscape:pagecheckerboard="0"
     inkscape:deskcolor="#d1d1d1"
     inkscape:document-units="mm"
     inkscape:zoom="0.70644641"
     inkscape:cx="227.90122"
     inkscape:cy="101.21079"
     inkscape:window-width="1920"
     inkscape:window-height="942"
     inkscape:window-x="0"
     inkscape:window-y="25"
     inkscape:window-maximized="1"
     inkscape:current-layer="layer1" />
  <defs
     id="defs1" />
  <g
     inkscape:label="Layer 1"
     inkscape:groupmode="layer"
     id="layer1"
     transform="translate(-15.702742,-46.80888)">
    <g
       id="g2"
       transform="matrix(1.815677,0,0,1.815677,-56.949626,-101.14298)">
      <path
         style="fill:#ffdd55;fill-opacity:1;fill-rule:evenodd;stroke-width:0.264583"
         d="m 44.153991,81.485782 c 0,0 9.92048,5.660303 13.90926,8.948298 3.98875,3.28799 10.01178,10.4562 10.01178,10.4562 0,0 -4.42868,6.11229 -6.28902,5.31544 -1.86243,-0.79892 -14.62132,-3.45508 -17.9896,-7.44244 -3.36518,-3.98735 -6.64353,-6.9112 0.35758,-17.277498 z"
         id="path1" />
      <path
         id="path2"
         style="opacity:1;fill:#0c0c0c;stroke-width:0.278808"
         d="m 55.430013,95.644856 c 0,4.563674 -1.027049,8.263264 -2.293978,8.263264 -1.266929,0 -2.293979,-3.69959 -2.293979,-8.263264 0,-4.563672 1.027049,-8.26326 2.293979,-8.263259 1.266929,0 2.293978,3.699587 2.293978,8.263259 z"
         sodipodi:nodetypes="scscs" />
    </g>
    <g
       id="g4"
       transform="matrix(-1.815677,0,0,1.815677,265.097,-101.14298)">
      <path
         style="fill:#ffdd55;fill-opacity:1;fill-rule:evenodd;stroke-width:0.264583"
         d="m 44.153991,81.485782 c 0,0 9.92048,5.660303 13.90926,8.948298 3.98875,3.28799 10.01178,10.4562 10.01178,10.4562 0,0 -4.42868,6.11229 -6.28902,5.31544 -1.86243,-0.79892 -14.62132,-3.45508 -17.9896,-7.44244 -3.36518,-3.98735 -6.64353,-6.9112 0.35758,-17.277498 z"
         id="path3" />
      <path
         id="path4"
         style="opacity:1;fill:#0c0c0c;stroke-width:0.278808"
         d="m 55.430013,95.644856 c 0,4.563674 -1.027049,8.263264 -2.293978,8.263264 -1.266929,0 -2.293979,-3.69959 -2.293979,-8.263264 0,-4.563672 1.027049,-8.26326 2.293979,-8.263259 1.266929,0 2.293978,3.699587 2.293978,8.263259 z"
         sodipodi:nodetypes="scscs" />
    </g>
  </g>
</svg>
